<svg xmlns="http://www.w3.org/2000/svg" width="512" height="512" viewBox="0 0 512 512" version="1.1"><path d="M 345 156.057 C 323.825 163.722, 295.025 174.113, 281 179.148 C 255.861 188.175, 179.566 216.105, 103.644 244.076 C 82.272 251.949, 64.548 259.013, 64.257 259.773 C 63.965 260.533, 64.351 261.730, 65.113 262.432 C 65.876 263.134, 86.750 269.888, 111.500 277.441 C 136.250 284.994, 156.538 291.247, 156.584 291.337 C 156.630 291.427, 163.982 312.875, 172.922 339 C 181.862 365.125, 189.792 387.140, 190.546 387.922 C 191.505 388.918, 192.490 389.067, 193.833 388.422 C 194.888 387.915, 206.172 377.600, 218.908 365.500 C 231.644 353.400, 242.387 343.399, 242.782 343.276 C 243.177 343.153, 263.075 356.988, 287 374.020 C 310.925 391.052, 330.725 404.983, 331 404.978 C 331.275 404.973, 332.040 404.626, 332.700 404.206 C 334.073 403.334, 389.322 145.282, 388.561 143.299 C 388.287 142.584, 387.036 142.027, 385.781 142.060 C 384.527 142.094, 366.175 148.392, 345 156.057 M 302.500 204.096 C 289.300 212.413, 276.484 220.494, 274.019 222.052 C 270.085 224.539, 269.780 224.974, 271.519 225.613 C 272.609 226.012, 275.907 227.861, 278.848 229.720 C 281.790 231.580, 284.585 232.966, 285.060 232.801 C 285.534 232.635, 296.080 223.520, 308.495 212.545 C 322.425 200.231, 330.955 191.999, 330.774 191.045 C 330.091 187.458, 325.653 189.507, 302.500 204.096 M 254.072 258.105 C 243.715 262.699, 210.036 272.984, 205.310 272.997 C 204.656 272.999, 203.981 271.470, 203.810 269.601 L 203.500 266.201 189 274.923 C 181.025 279.720, 174.388 284.287, 174.251 285.073 C 174.114 285.858, 178.665 301.526, 184.364 319.890 C 193.005 347.738, 194.822 352.718, 195.310 349.890 C 195.632 348.026, 196.689 338.300, 197.659 328.277 L 199.423 310.054 227.511 285.078 C 252.979 262.431, 260.085 255.865, 258.905 256.071 C 258.682 256.109, 256.507 257.025, 254.072 258.105" stroke="none" fill="#ffffff" fill-rule="evenodd"/><path d="M 469.360 171.500 C 469.682 172.600, 470.451 179.800, 471.068 187.500 C 474.153 226.001, 465.854 268.257, 448.095 304.476 C 417.346 367.186, 358.620 414.106, 289.884 430.882 C 268.311 436.147, 256.930 437.427, 231.500 437.448 C 200.414 437.473, 179.130 434.101, 152.418 424.918 C 116.013 412.403, 87.869 394.796, 59.750 366.944 C 51.637 358.909, 45 352.538, 45 352.787 C 45 353.613, 56.600 375.404, 60.018 381 C 74.234 404.272, 97.884 429.534, 121.500 446.673 C 135.199 456.614, 153.022 466.571, 170.500 474.047 C 176.622 476.666, 197.806 483.127, 206 484.875 C 223.149 488.534, 226.327 488.970, 242.691 489.918 C 303.747 493.455, 361.352 474.241, 407 435.112 C 436.315 409.983, 458.335 378.889, 472.537 342.567 C 490.176 297.455, 492.725 243.535, 479.409 197.212 C 476.206 186.069, 471.053 171.792, 469.769 170.500 C 469.109 169.836, 468.972 170.173, 469.360 171.500 M 270.500 225 C 270.840 225.550, 271.563 226, 272.107 226 C 272.651 226, 275.599 227.601, 278.657 229.557 C 281.716 231.514, 284.446 232.888, 284.724 232.610 C 285.411 231.922, 273.046 224, 271.286 224 C 270.514 224, 270.160 224.450, 270.500 225 M 202.347 266.765 C 201.487 267.313, 201.530 268.263, 202.516 270.500 L 203.838 273.500 203.919 269.750 C 204.007 265.666, 204.023 265.697, 202.347 266.765" stroke="none" fill="#e7090b" fill-rule="evenodd"/><path d="M 240.253 29.096 C 140.802 36.261, 56.947 106.685, 32.586 203.500 C 28.242 220.767, 26.854 231.683, 26.287 253.046 C 25.500 282.681, 28.685 305.871, 36.993 331 C 43.544 350.817, 43.673 351.021, 59.813 367.007 C 74.208 381.265, 81.958 387.668, 97 397.728 C 126.023 417.140, 159.693 429.922, 197 435.689 C 212.974 438.158, 249.818 438.146, 266 435.666 C 325.563 426.538, 377.643 397.981, 415.702 353.576 C 455.459 307.193, 475.935 245.456, 470.949 187 C 470.269 179.025, 469.688 171.600, 469.658 170.500 C 469.573 167.332, 457.111 143.475, 449.808 132.500 C 413.810 78.402, 358.518 42.466, 294.500 31.564 C 285.609 30.049, 260.315 27.892, 254.500 28.152 C 252.850 28.225, 246.439 28.650, 240.253 29.096 M 331 161.076 C 241.111 193.506, 219.759 201.288, 141.140 230.265 C 99.142 245.745, 64.543 259.028, 64.253 259.783 C 63.963 260.538, 64.351 261.737, 65.113 262.447 C 65.876 263.158, 86.750 269.917, 111.500 277.466 L 156.500 291.192 172.960 339.148 C 182.013 365.524, 190.012 387.595, 190.734 388.194 C 191.563 388.882, 192.737 388.955, 193.916 388.392 C 194.944 387.901, 206.198 377.600, 218.925 365.500 C 231.652 353.400, 242.388 343.403, 242.782 343.284 C 243.177 343.164, 263.075 356.998, 287 374.025 C 310.925 391.052, 330.725 404.980, 331 404.976 C 331.275 404.972, 332.039 404.627, 332.698 404.208 C 334.074 403.333, 389.327 145.295, 388.565 143.308 C 388.289 142.589, 387.036 142.030, 385.781 142.067 C 384.527 142.104, 359.875 150.658, 331 161.076 M 303 203.759 C 290.075 211.891, 277.839 219.683, 275.809 221.074 L 272.118 223.605 278.934 228.110 L 285.751 232.616 289.166 229.558 C 291.045 227.876, 301.240 218.865, 311.822 209.533 C 330.550 193.018, 333.149 189.853, 328.490 189.237 C 327.327 189.083, 316.730 195.121, 303 203.759 M 256.700 257.108 C 250.865 260.503, 210.061 272.987, 204.769 272.997 C 203.755 272.999, 202.778 271.964, 202.411 270.500 C 202.066 269.125, 201.494 268.017, 201.142 268.037 C 199.336 268.140, 174.464 283.944, 174.251 285.123 C 174.114 285.880, 178.665 301.526, 184.364 319.890 C 193.005 347.738, 194.822 352.718, 195.310 349.890 C 195.632 348.026, 196.689 338.300, 197.659 328.277 L 199.423 310.054 227.511 285.078 C 258.429 257.584, 262.366 253.811, 256.700 257.108 M 245.768 490.725 C 247.565 490.947, 250.265 490.943, 251.768 490.715 C 253.271 490.486, 251.800 490.304, 248.500 490.310 C 245.200 490.315, 243.971 490.502, 245.768 490.725 M 264.762 490.707 C 266.006 490.946, 267.806 490.937, 268.762 490.687 C 269.718 490.437, 268.700 490.241, 266.500 490.252 C 264.300 490.263, 263.518 490.468, 264.762 490.707" stroke="none" fill="#121111" fill-rule="evenodd"/></svg>